# xmcd
#
# Track frame offsets:
#	150
#	12108
#	24600
#	37323
#	50198
#	62970
#	75045
#	86963
#	98808
#	111620
#	123255
#	135178
#
# Disc length: 1965 seconds
#
# Revision: 1
# Processed by: cddbd v1.5.2PL0 Copyright (c) Steve Scherf et al.
# Submitted via: audiograbber 1.83.01
#
DISCID=9f07ab0c
DTITLE=Bob Wills and His Texas Playboys - Bob Wills and Friends Vol. 1
DYEAR=1900
DGENRE=Country
TTITLE0=San Antonio Rose
TTITLE1=Stay A Little Longer
TTITLE2=New Spanish Two-Step
TTITLE3=A Maiden's Prayer
TTITLE4=Roly-Poly
TTITLE5=Take Me Back To Tulsa
TTITLE6=Time Changes Everything
TTITLE7=Texas Playboy Rag
TTITLE8=Corrine Corina
TTITLE9=Steel Guitar Rag
TTITLE10=Cotton-Eyed Joe 
TTITLE11=Let's Ride With Bob 
EXTD=
EXTT0=
EXTT1=
EXTT2=
EXTT3=
EXTT4=
EXTT5=
EXTT6=
EXTT7=
EXTT8=
EXTT9=
EXTT10=
EXTT11=
PLAYORDER=
